# xmcd CD database file
#
# Track frame offsets:
#	150
#	115605
#	193319
#	228717
#	267752
#	297651
#	325127
#
# Disc length: 4427 seconds
#
# Revision: 0
# Processed by: cddbd v1.5.2PL0 Copyright (c) Steve Scherf et al.
# Submitted via: CDex 1.51
#
DISCID=6a114907
DTITLE=Will Bernard and Motherbug - The Jupiter - Dec 2 , 2000
DYEAR=2000
DGENRE=Jazz
TTITLE0=Motherbug Theme
TTITLE1=In a Silent Way
TTITLE2=Me and Jesus the Pimp in a 79 Granada Last Night
TTITLE3=Sultan
TTITLE4=The Shipment
TTITLE5=Soft and Wet
TTITLE6=Drum Solo
EXTD=YEAR: 2000
EXTT0=
EXTT1=
EXTT2=
EXTT3=
EXTT4=
EXTT5=
EXTT6=
PLAYORDER=
